<?xml version="1.0" encoding="utf-8" ?>
<svg xmlns="http://www.w3.org/2000/svg" xmlns:xlink="http://www.w3.org/1999/xlink" width="24" height="24">
	<path fill="#929292" transform="translate(3.95113 3)" d="M15.189348 14.373871L16.280962 3.8641934C16.289671 3.7887096 16.280962 3.7103226 16.266445 3.6116128C16.074833 1.4719355 12.736122 0 8.143219 0C3.5503159 0 0.21160625 1.4748387 0.022896579 3.5825806C-0.00032922739 3.7074194 -0.0032324533 3.7887096 0.0025739984 3.8641934L1.0941869 14.373871C1.1899934 15.29129 1.6661224 16.104193 2.3977354 16.606451C3.8087029 17.570322 5.5796709 18 8.140316 18C10.700961 18 12.471929 17.570322 13.882896 16.606451C14.617413 16.107098 15.093542 15.29129 15.186445 14.373871L15.189348 14.373871ZM1.7561224 3.7741935C1.7561224 3.0658064 3.9509611 1.7419355 8.143219 1.7419355C12.335477 1.7419355 14.530316 3.0658064 14.530316 3.7741935C14.530316 4.4825807 12.335477 5.8064518 8.143219 5.8064518C3.9509611 5.8064518 1.7561224 4.4825807 1.7561224 3.7741935ZM12.90451 15.169354C12.161283 15.67742 10.947735 16.258064 8.143219 16.258064C5.3387032 16.258064 4.1251545 15.674516 3.3819289 15.169354C3.0712836 14.957419 2.8709612 14.603226 2.8274126 14.196774L2.0145094 6.3696775L2.4703159 6.5700002C3.9451547 7.2116127 5.9077353 7.5512905 8.143219 7.5512905C10.378703 7.5512905 12.341284 7.2116127 13.816122 6.5700002L14.271929 6.3725805L13.459025 14.199677C13.415477 14.606129 13.215155 14.960322 12.90451 15.172258L12.90451 15.169354Z"/>
</svg>
