<?xml version="1.0" encoding="utf-8" ?>
<svg xmlns="http://www.w3.org/2000/svg" xmlns:xlink="http://www.w3.org/1999/xlink" width="24" height="24">
	<path fill="#25282B" transform="translate(3 3.01)" d="M18 14.464286L18 3.5357144C18 1.5846429 16.415358 0 14.464286 0L3.5357144 0C1.5846429 0 0 1.5846429 0 3.5357144L0 14.464286C0 16.415358 1.5846429 18 3.5357144 18L14.464286 18C16.415358 18 18 16.415358 18 14.464286ZM8.0357141 1.9285715L14.464286 1.9285715C15.351429 1.9285715 16.071428 2.6485715 16.071428 3.5357144L16.071428 9.9642859L8.0357141 9.9642859L8.0357141 1.9285715ZM6.1071429 16.071428L3.5357144 16.071428C2.6485715 16.071428 1.9285715 15.351429 1.9285715 14.464286L1.9285715 3.5357144C1.9285715 2.6485715 2.6485715 1.9285715 3.5357144 1.9285715L6.1071429 1.9285715L6.1071429 16.071428ZM8.0357141 11.892858L16.071428 11.892858L16.071428 14.464286C16.071428 15.351429 15.351429 16.071428 14.464286 16.071428L8.0357141 16.071428L8.0357141 11.892858Z"/>
</svg>
