<?xml version="1.0" encoding="utf-8" ?>
<svg xmlns="http://www.w3.org/2000/svg" xmlns:xlink="http://www.w3.org/1999/xlink" width="24" height="24">
	<path transform="translate(4 3.01)" d="M15.67742 3.1935484C15.67742 1.4312903 14.246129 0 12.483871 0L3.1935484 0C1.4312903 0 0 1.4312903 0 3.1935484L0 12.631935C0 13.32871 0.27290323 13.984838 0.7664516 14.478387L3.5216129 17.233549C4.0151615 17.727097 4.6712904 18 5.3680644 18L12.483871 18C14.246129 18 15.67742 16.56871 15.67742 14.806452L15.67742 3.1935484ZM13.935484 14.806452C13.935484 15.607742 13.285161 16.258064 12.483871 16.258064L5.3680644 16.258064C5.1358066 16.258064 4.9180646 16.168064 4.7525806 16.002581L1.9974194 13.247419C1.8319355 13.081936 1.7419355 12.864194 1.7419355 12.631935L1.7419355 3.1935484C1.7419355 2.3922582 2.3922582 1.7419355 3.1935484 1.7419355L12.483871 1.7419355C13.285161 1.7419355 13.935484 2.3922582 13.935484 3.1935484L13.935484 14.806452Z"/>
	<path transform="translate(9.51613 8.81645)" d="M4.0645161 0L0.87096775 0C0.3919355 0 0 0.3919355 0 0.87096775C0 1.35 0.3919355 1.7419355 0.87096775 1.7419355L4.0645161 1.7419355C4.5435486 1.7419355 4.9354839 1.35 4.9354839 0.87096775C4.9354839 0.3919355 4.5435486 0 4.0645161 0Z"/>
	<path transform="translate(9.51613 13.4616)" d="M4.0645161 0L0.87096775 0C0.3919355 0 0 0.3919355 0 0.87096775C0 1.35 0.3919355 1.7419355 0.87096775 1.7419355L4.0645161 1.7419355C4.5435486 1.7419355 4.9354839 1.35 4.9354839 0.87096775C4.9354839 0.3919355 4.5435486 0 4.0645161 0Z"/>
</svg>
