<?xml version="1.0" encoding="utf-8" ?>
<svg xmlns="http://www.w3.org/2000/svg" xmlns:xlink="http://www.w3.org/1999/xlink" width="24" height="24">
	<path transform="translate(3.21121 15.3724)" d="M17.880302 0.45757613C17.738319 0.2098629 17.493628 0.043713778 17.209663 0.0074630589C16.810905 -0.043892123 16.421211 0.17361218 16.267145 0.54216117C15.720364 1.8502079 14.569403 2.7715802 13.194897 3.004189C12.001644 3.206589 10.391508 3.3304455 8.9958553 3.3304455C7.6002026 3.3304455 6.0263171 3.2096097 4.8451481 3.0132518C3.4555373 2.780643 2.2924933 1.874375 1.7396699 0.58143276C1.597688 0.24913451 1.2714314 0.037671991 0.91798699 0.037671991C0.86965269 0.037671991 0.81829751 0.040692884 0.7699632 0.049755562C0.48297837 0.098089851 0.24734871 0.26423898 0.11140852 0.50893134C-0.021510776 0.75060278 -0.036615241 1.0375876 0.072136909 1.2913426C0.86663181 3.1522129 2.5402067 4.4632807 4.5491004 4.7985997C5.8390222 5.013083 7.5035338 5.1429815 8.9988766 5.1429815C10.494218 5.1429815 12.158731 5.0161037 13.448651 4.7985997C15.445462 4.4663014 17.122057 3.1371083 17.928637 1.2430084C18.037388 0.98623246 18.022284 0.6992476 17.880302 0.45455524L17.880302 0.45757613Z"/>
	<path transform="translate(6.77088 2.97)" d="M0.41546002 6.4828367C0.17983034 6.6399231 0.031806581 6.8785739 0.0046185437 7.1534748C-0.022569494 7.4253554 0.071078196 7.6911941 0.26441535 7.884531L3.2037444 10.82386C3.551147 11.171263 3.9287589 11.425018 4.3244958 11.573042C5.4694142 12.00503 6.7623568 11.733149 7.6202903 10.875216L10.607953 7.8875518C10.79827 7.6972356 10.891917 7.4344182 10.870771 7.1685796C10.846604 6.896699 10.707643 6.6610694 10.481076 6.5009623C10.130652 6.2532487 9.6110592 6.3197083 9.2757397 6.6550274L6.3394313 9.5913353L6.3394313 0.90626794C6.3394313 0.40782058 5.9316111 0 5.4331636 0C4.9347162 0 4.5268955 0.40782058 4.5268955 0.90626794L4.5268955 9.5913353C4.5268955 9.5913353 1.5664203 6.6308603 1.5664203 6.6308603C1.2492266 6.3136668 0.76286274 6.2532487 0.41243911 6.4858575L0.41546002 6.4828367Z"/>
</svg>
