<?xml version="1.0" encoding="utf-8" ?>
<svg xmlns="http://www.w3.org/2000/svg" xmlns:xlink="http://www.w3.org/1999/xlink" width="24" height="24">
	<path fill="#929292" transform="translate(7.64511 3)" d="M13.354893 4.3548388C13.354893 1.9497277 11.405166 0 9.0000544 0C8.7691374 0.00020328624 8.5477524 0.092099048 8.3845701 0.25548387L1.6142479 7.0229034C0.57667953 8.0557823 -0.0045689307 9.4608145 2.7049606e-05 10.924839L2.7049606e-05 12.483871C2.7049606e-05 12.964893 0.38999996 13.354866 0.87102216 13.354866L2.4300544 13.354866C3.8940785 13.359462 5.2991109 12.778214 6.3319898 11.740645L13.099409 4.9703226C13.262794 4.8071413 13.35469 4.5857558 13.354893 4.3548388ZM5.0981188 10.506774C4.3922448 11.217108 3.4314663 11.615428 2.4300544 11.612915L1.7419779 11.612915L1.7419779 10.924839C1.7394649 9.9234266 2.1377854 8.9626484 2.848119 8.2567739L9.3426352 1.7593548L9.4936028 1.7883871C10.540872 1.9952983 11.359595 2.8140218 11.566506 3.8612902L11.595538 4.0122581L5.0981188 10.506774Z"/>
	<path fill="#929292" transform="translate(3 5.32258)" d="M4.3548388 15.67742L11.32258 15.67742C13.727692 15.67742 15.67742 13.727692 15.67742 11.32258L15.67742 10.451612C15.67742 9.9705906 15.287474 9.5806456 14.806452 9.5806456C14.325429 9.5806456 13.935484 9.9705906 13.935484 10.451612L13.935484 11.32258C13.935484 12.765647 12.765647 13.935484 11.32258 13.935484L4.3548388 13.935484C3.6618538 13.935484 2.9972515 13.660196 2.5072372 13.170182C2.0172226 12.680168 1.7419355 12.015566 1.7419355 11.32258L1.7419355 4.3548388C1.7419355 2.911772 2.911772 1.7419355 4.3548388 1.7419355L5.2258062 1.7419355C5.7068286 1.7419355 6.0967741 1.35199 6.0967741 0.87096775C6.0967741 0.38994554 5.7068286 0 5.2258062 0L4.3548388 0C3.1998637 0 2.0921934 0.45881206 1.2755027 1.2755027C0.45881206 2.0921934 0 3.1998637 0 4.3548388L0 11.32258C0 13.727692 1.9497277 15.67742 4.3548388 15.67742Z"/>
</svg>
