<?xml version="1.0" encoding="utf-8" ?>
<svg xmlns="http://www.w3.org/2000/svg" xmlns:xlink="http://www.w3.org/1999/xlink" width="24" height="24">
	<path transform="translate(3.99997 3)" d="M5.9608121 16.57745L8.360733 17.777411C9.1957541 18.195826 10.206769 18.012449 10.84165 17.327425C11.211784 16.916691 11.411338 16.380255 11.399632 15.827476L11.399632 10.169663L15.407499 6.1617956C15.916403 5.6563487 16.201635 4.9681144 16.199486 4.2508593L16.199486 2.6999106C16.199486 1.2087911 14.990682 0 13.499562 0L2.6999202 0C1.2088008 0 4.8145971e-06 1.2087911 4.8145971e-06 2.6999106L4.8145971e-06 4.2508593C-0.0013512957 4.9670749 0.28382078 5.6540804 0.79198343 6.1587958L4.7998505 10.169663L4.7998505 14.699512C4.7999911 15.494834 5.2494273 16.221828 5.9608121 16.57745L5.9608121 16.57745ZM2.0609415 4.8778381C1.895402 4.7109494 1.801728 4.4859166 1.79995 4.2508593L1.79995 2.6999106C1.79995 2.2028706 2.2028804 1.7999403 2.6999202 1.7999403L13.499562 1.7999403C13.996602 1.7999403 14.399532 2.2028706 14.399532 2.6999106L14.399532 4.2508593C14.399323 4.4894657 14.304367 4.7182226 14.135541 4.886838L9.8636827 9.1616964C9.6948576 9.3303118 9.5999012 9.5590687 9.5996914 9.7976751L9.5996914 16.397457L6.599791 14.897507L6.599791 9.7976751C6.5995808 9.5590687 6.5046253 9.3303118 6.3357997 9.1616964L2.0609415 4.8778381Z"/>
</svg>
