<?xml version="1.0" encoding="utf-8" ?>
<svg xmlns="http://www.w3.org/2000/svg" xmlns:xlink="http://www.w3.org/1999/xlink" width="24" height="24">
	<path fill="#929292" transform="translate(3 3.01)" d="M3.6007249 17.403503L7.2014499 17.403503C7.6965494 17.403503 8.1016312 16.998423 8.1016312 16.503323C8.1016312 16.008223 7.6965494 15.603142 7.2014499 15.603142L3.5677183 15.603142L3.4987044 15.561133C2.9075854 15.213063 1.8003625 12.842586 1.8003625 8.7017517C1.8003625 4.5609183 2.9075854 2.1904409 3.4987044 1.8423709L3.5677183 1.8003625L7.2014499 1.8003625C7.6965494 1.8003625 8.1016312 1.395281 8.1016312 0.90018123C8.1016312 0.40508157 7.6965494 0 7.2014499 0L3.6007249 0C1.2362489 0 0 4.3778815 0 8.7017517C0 13.025622 1.2362489 17.403503 3.6007249 17.403503Z"/>
	<path fill="#929292" transform="translate(8.40409 6.01298)" d="M7.0394173 10.98884C7.1954489 11.222887 7.4324965 11.369917 7.7055511 11.396922C7.975606 11.423927 8.2426596 11.330909 8.4346981 11.13887L11.651346 7.9222226C11.996415 7.5771532 12.248466 7.2020774 12.395495 6.8089981C12.824582 5.6717691 12.551527 4.3875108 11.702356 3.5353394L8.4346981 0.26468074C8.2456598 0.075642698 7.987608 -0.020376636 7.7205544 0.0036281967C7.4505 0.02763303 7.2164531 0.16266021 7.0574207 0.39070612C6.8113713 0.73877621 6.8773847 1.2518795 7.2104516 1.5849465L10.427099 4.8015943L0.90018123 4.8015943C0.40508157 4.8015943 0 5.2066755 0 5.7017756C0 6.1968751 0.40508157 6.6019568 0.90018123 6.6019568L10.427099 6.6019568C10.427099 6.6019568 7.1864467 9.8426094 7.1864467 9.8426094C6.8713832 10.157673 6.8113713 10.64077 7.042418 10.98884L7.0394173 10.98884Z"/>
</svg>
