<?xml version="1.0" encoding="UTF-8" standalone="no" ?>
<!DOCTYPE svg PUBLIC "-//W3C//DTD SVG 1.1//EN" "http://www.w3.org/Graphics/SVG/1.1/DTD/svg11.dtd">
<svg xmlns="http://www.w3.org/2000/svg" xmlns:xlink="http://www.w3.org/1999/xlink" version="1.1" width="1080" height="1080" viewBox="0 0 1080 1080" xml:space="preserve">
<desc>Created with Fabric.js 5.2.4</desc>
<defs>
</defs>
<g transform="matrix(1 0 0 1 540 540)" id="88dbc92b-be86-4c42-ae8e-040f1198f7d1"  >
<rect style="stroke: none; stroke-width: 1; stroke-dasharray: none; stroke-linecap: butt; stroke-dashoffset: 0; stroke-linejoin: miter; stroke-miterlimit: 4; fill: rgb(255,255,255); fill-rule: nonzero; opacity: 1; visibility: hidden;" vector-effect="non-scaling-stroke"  x="-540" y="-540" rx="0" ry="0" width="1080" height="1080" />
</g>
<g transform="matrix(1 0 0 1 540 540)" id="41248df1-6808-48a2-80c3-d312f4b2ea70"  >
</g>
<g transform="matrix(19.59 0 0 19.59 550.23 366.13)"  >
<path style="stroke: none; stroke-width: 1; stroke-dasharray: none; stroke-linecap: butt; stroke-dashoffset: 0; stroke-linejoin: miter; stroke-miterlimit: 4; fill: rgb(146,146,146); fill-rule: nonzero; opacity: 1;" vector-effect="non-scaling-stroke"  transform=" translate(-18.8, -2.09)" d="M 35.344002 0 L 2.256 0 C 1.0152 0 0 0.94 0 2.0888889 C 0 3.2377777 1.0152 4.1777778 2.256 4.1777778 L 35.344002 4.1777778 C 36.584801 4.1777778 37.599998 3.2377777 37.599998 2.0888889 C 37.599998 0.94 36.584801 0 35.344002 0 Z" stroke-linecap="round" />
</g>
<g transform="matrix(19.59 0 0 19.59 539.99 120.66)"  >
<path style="stroke: none; stroke-width: 1; stroke-dasharray: none; stroke-linecap: butt; stroke-dashoffset: 0; stroke-linejoin: miter; stroke-miterlimit: 4; fill: rgb(146,146,146); fill-rule: nonzero; opacity: 1;" vector-effect="non-scaling-stroke"  transform=" translate(-13.06, -2.09)" d="M 23.80719 0 L 2.3039215 0 C 1.0367647 0 0 0.94 0 2.0888889 C 0 3.2377777 1.0367647 4.1777778 2.3039215 4.1777778 L 23.80719 4.1777778 C 25.074347 4.1777778 26.111111 3.2377777 26.111111 2.0888889 C 26.111111 0.94 25.074347 0 23.80719 0 Z" stroke-linecap="round" />
</g>
<g transform="matrix(19.59 0 0 19.59 540 775.24)"  >
<path style="stroke: none; stroke-width: 1; stroke-dasharray: none; stroke-linecap: butt; stroke-dashoffset: 0; stroke-linejoin: miter; stroke-miterlimit: 4; fill: rgb(19,185,129); fill-rule: nonzero; opacity: 1;" vector-effect="non-scaling-stroke"  transform=" translate(-23.5, -11.49)" d="M 46.909031 15.364474 L 45.279194 5.4687109 C 44.75613 2.2977779 42.072582 0 38.88871 0 L 32.778709 0 C 32.073711 0 31.421774 0.32168889 30.989677 0.88081479 L 26.934032 6.1274076 L 20.058388 6.1274076 L 16.002743 0.88081479 C 15.570645 0.32168889 14.91871 0 14.21371 0 L 8.1037092 0 C 4.9274192 0 2.2362902 2.2977779 1.7208065 5.4687109 L 0.090967745 15.356814 C 0.030322582 15.709141 0 16.076786 0 16.436769 C 0 20.044281 2.9033871 22.977777 6.4738708 22.977777 L 40.526131 22.977777 C 44.096611 22.977777 47 20.044281 47 16.436769 C 47 16.076786 46.969677 15.7168 46.909031 15.356814 L 46.909031 15.364474 Z M 40.526131 18.389881 L 6.5193548 18.389881 C 5.9887094 18.389881 5.4732256 18.167763 5.1017742 17.7848 C 4.7379031 17.409496 4.5408063 16.926964 4.5481763 16.413792 C 4.5481763 16.314222 4.5559678 16.222311 4.5787096 16.12274 L 6.2085485 6.2269778 C 6.3601613 5.2848887 7.1637096 4.6032147 8.11129 4.6032147 L 13.106936 4.6032147 L 16.252903 8.6702814 C 17.268709 9.9800148 18.792419 10.730622 20.43742 10.730622 L 26.577742 10.730622 C 28.222742 10.730622 29.746452 9.9800148 30.762259 8.6702814 L 33.908226 4.6032147 L 38.90387 4.6032147 C 39.851452 4.6032147 40.647419 5.2848887 40.806614 6.2269778 L 42.436451 16.115082 C 42.451614 16.222311 42.466774 16.3372 42.466774 16.436769 C 42.466774 17.509068 41.602581 18.382223 40.54129 18.382223 L 40.526131 18.389881 Z" stroke-linecap="round" />
</g>
</svg>