<?xml version="1.0" encoding="utf-8" ?>
<svg xmlns="http://www.w3.org/2000/svg" xmlns:xlink="http://www.w3.org/1999/xlink" width="61" height="38">
	<path fill="#929292" transform="translate(96.2222 12.5333)" d="M35.344002 0L2.256 0C1.0152 0 0 0.94 0 2.0888889C0 3.2377777 1.0152 4.1777778 2.256 4.1777778L35.344002 4.1777778C36.584801 4.1777778 37.599998 3.2377777 37.599998 2.0888889C37.599998 0.94 36.584801 0 35.344002 0Z"/>
	<path fill="#929292" transform="translate(101.444 0)" d="M23.80719 0L2.3039215 0C1.0367647 0 0 0.94 0 2.0888889C0 3.2377777 1.0367647 4.1777778 2.3039215 4.1777778L23.80719 4.1777778C25.074347 4.1777778 26.111111 3.2377777 26.111111 2.0888889C26.111111 0.94 25.074347 0 23.80719 0Z"/>
	<path fill="#13B981" transform="translate(91 24.0222)" d="M46.909031 15.364474L45.279194 5.4687109C44.75613 2.2977779 42.072582 0 38.88871 0L32.778709 0C32.073711 0 31.421774 0.32168889 30.989677 0.88081479L26.934032 6.1274076L20.058388 6.1274076L16.002743 0.88081479C15.570645 0.32168889 14.91871 0 14.21371 0L8.1037092 0C4.9274192 0 2.2362902 2.2977779 1.7208065 5.4687109L0.090967745 15.356814C0.030322582 15.709141 0 16.076786 0 16.436769C0 20.044281 2.9033871 22.977777 6.4738708 22.977777L40.526131 22.977777C44.096611 22.977777 47 20.044281 47 16.436769C47 16.076786 46.969677 15.7168 46.909031 15.356814L46.909031 15.364474ZM40.526131 18.389881L6.5193548 18.389881C5.9887094 18.389881 5.4732256 18.167763 5.1017742 17.7848C4.7379031 17.409496 4.5408063 16.926964 4.5481763 16.413792C4.5481763 16.314222 4.5559678 16.222311 4.5787096 16.12274L6.2085485 6.2269778C6.3601613 5.2848887 7.1637096 4.6032147 8.11129 4.6032147L13.106936 4.6032147L16.252903 8.6702814C17.268709 9.9800148 18.792419 10.730622 20.43742 10.730622L26.577742 10.730622C28.222742 10.730622 29.746452 9.9800148 30.762259 8.6702814L33.908226 4.6032147L38.90387 4.6032147C39.851452 4.6032147 40.647419 5.2848887 40.806614 6.2269778L42.436451 16.115082C42.451614 16.222311 42.466774 16.3372 42.466774 16.436769C42.466774 17.509068 41.602581 18.382223 40.54129 18.382223L40.526131 18.389881Z"/>
</svg>
