<?xml version="1.0" encoding="utf-8" ?>
<svg xmlns="http://www.w3.org/2000/svg" xmlns:xlink="http://www.w3.org/1999/xlink" width="24" height="24">
	<path transform="translate(3.00584 3.02)" d="M2.901242 17.995302C3.1712151 17.995302 3.4382851 17.957563 3.6995494 17.884991L5.0203853 17.507608C5.2032704 17.455357 5.3861556 17.42923 5.5661373 17.42923C5.7548285 17.42923 5.9377131 17.45826 6.1118894 17.51922C7.3078995 17.931438 8.5968027 18.079487 9.85958 17.957563C14.182053 17.545347 17.66848 13.971832 17.976191 9.6464577C18.196814 6.5432186 16.875977 3.6664085 14.356229 1.7591794C12.858314 0.62413132 10.95689 0 9.0003109 0C8.7825909 0 8.5648708 0.0087088086 8.3529568 0.023223491C4.0275812 0.32803181 0.45696953 3.8173614 0.041849643 8.1369305C-0.080073684 9.3968048 0.065073133 10.64797 0.46858129 11.849786C0.59050459 12.20975 0.60501927 12.572618 0.50922239 12.900649L0.12893774 14.236C-0.10039423 15.03721 -0.0045973375 15.884868 0.39600787 16.561253C0.91853642 17.449551 1.8794084 18.001108 2.9041448 18.001108L2.901242 17.995302ZM1.7749026 8.3023977C2.1087403 4.8188744 4.9884529 2.005929 8.4748793 1.7591794C8.6461525 1.7475677 8.8232317 1.7417618 9.0003109 1.7417618C10.579509 1.7417618 12.109356 2.2410669 13.305366 3.1467829C15.34613 4.6940479 16.41441 7.016397 16.237331 9.5245342C15.990582 13.010961 13.177636 15.890674 9.6941128 16.22451C9.4589748 16.247734 9.2267399 16.256443 8.9945049 16.256443C8.2020035 16.256443 7.4240165 16.128714 6.6779623 15.870353C6.0073838 15.641021 5.2671351 15.626506 4.5443039 15.832615L3.2234678 16.209997C2.7154541 16.355143 2.1697021 16.13452 1.8968259 15.672954C1.7400674 15.408786 1.7081351 15.05753 1.803932 14.712081L2.1842167 13.376731C2.3758104 12.709055 2.352587 11.986224 2.120352 11.292422C1.7952232 10.322842 1.6791058 9.3184252 1.7749026 8.3023977L1.7749026 8.3023977Z"/>
	<path transform="translate(8.81001 8.82297)" d="M5.5155792 0L0.8708809 0C0.3918964 0 0 0.3918964 0 0.8708809C0 1.3498654 0.3918964 1.7417618 0.8708809 1.7417618L5.5155792 1.7417618C5.9945636 1.7417618 6.3864598 1.3498654 6.3864598 0.8708809C6.3864598 0.3918964 5.9945636 0 5.5155792 0Z"/>
	<path transform="translate(8.81001 13.4677)" d="M5.5155792 0L0.8708809 0C0.3918964 0 0 0.3918964 0 0.8708809C0 1.3498654 0.3918964 1.7417618 0.8708809 1.7417618L5.5155792 1.7417618C5.9945636 1.7417618 6.3864598 1.3498654 6.3864598 0.8708809C6.3864598 0.3918964 5.9945636 0 5.5155792 0Z"/>
</svg>
