<?xml version="1.0" encoding="utf-8" ?>
<svg xmlns="http://www.w3.org/2000/svg" xmlns:xlink="http://www.w3.org/1999/xlink" width="24" height="24">
	<path transform="translate(9.09299 18.6937)" d="M0.26964736 1.4811149C0.90933466 2.0417092 1.7393823 2.3361104 2.5893388 2.3038626C3.4392505 2.3358183 4.2691932 2.0414543 4.90903 1.4811149C5.2432179 1.1465108 5.2432179 0.6044516 4.90903 0.26984751C4.5701079 -0.053738791 4.0366845 -0.053738791 3.6977625 0.26984751L3.6977625 0.26984751C3.3731315 0.49465933 2.9838369 0.60703301 2.5893388 0.58980495C2.1974123 0.60744864 1.8103784 0.49715403 1.4866283 0.27556103C1.274031 0.04538333 0.95276558 -0.0504262 0.64881921 0.025705075C0.34487283 0.10183635 0.10670144 0.33777142 0.027706197 0.64098603C-0.051289044 0.94420063 0.041485485 1.2663556 0.26964736 1.4811149L0.26964736 1.4811149Z"/>
	<path transform="translate(3.9567 3)" d="M15.41889 10.984253C15.518754 10.223396 15.257792 9.4595261 14.713269 8.9188128L13.284888 7.4904318L13.099198 5.0764675C12.914107 2.3082905 10.677281 0.12191099 7.9056039 0L7.7256279 0C4.9144292 0.017023154 2.5814469 2.1776969 2.3492005 4.9793372L2.1549406 7.5018587L0.72655916 8.9302406C0.18203653 9.470953 -0.078925841 10.234823 0.020938797 10.99568C0.19717027 12.235908 1.2651247 13.153566 2.5177493 13.141233L12.933506 13.141233C14.186049 13.148296 15.249606 12.225324 15.41889 10.984253ZM13.704832 10.767138C13.645652 11.147229 13.318176 11.427329 12.933506 11.427051L2.5177493 11.427051C2.125531 11.437449 1.7866508 11.154845 1.7264261 10.767138C1.6961602 10.53347 1.7764183 10.299031 1.9435401 10.132937L3.4204865 8.6559906C3.6823347 8.3785076 3.8372202 8.0171089 3.8575711 7.6361265L4.0518308 5.113605C4.2092724 3.1497557 5.8792195 1.6544682 7.8484688 1.7140576C9.7547846 1.8025916 11.287527 3.3143883 11.402282 5.2193055L11.587971 7.6361265C11.605905 8.0123863 11.755566 8.3703604 12.010772 8.6474209L13.493432 10.13008C13.666625 10.294116 13.752374 10.530189 13.72483 10.767138L13.704832 10.767138Z"/>
</svg>
