<?xml version="1.0" encoding="utf-8" ?>
<svg xmlns="http://www.w3.org/2000/svg" xmlns:xlink="http://www.w3.org/1999/xlink" width="24" height="24">
	<path transform="translate(4.74194 7.65516)" d="M13.645162 0L0.87096775 0C0.3919355 0 0 0.3919355 0 0.87096775C0 1.35 0.3919355 1.7419355 0.87096775 1.7419355L13.645162 1.7419355C14.124193 1.7419355 14.516129 1.35 14.516129 0.87096775C14.516129 0.3919355 14.124193 0 13.645162 0Z"/>
	<path transform="translate(7.06452 3.01)" d="M9 0L0.87096775 0C0.3919355 0 0 0.3919355 0 0.87096775C0 1.35 0.3919355 1.7419355 0.87096775 1.7419355L9 1.7419355C9.4790325 1.7419355 9.8709679 1.35 9.8709679 0.87096775C9.8709679 0.3919355 9.4790325 0 9 0Z"/>
	<path transform="translate(3 12.2974)" d="M17.96516 5.8238711L17.340967 2.0729032C17.140646 0.87096775 16.112904 0 14.893548 0L12.553549 0C12.283548 0 12.033871 0.12193549 11.868387 0.33387098L10.315162 2.3225806L7.6819353 2.3225806L6.1287098 0.33387098C5.9632258 0.12193549 5.7135482 0 5.4435482 0L3.1035483 0C1.8870968 0 0.85645163 0.87096775 0.65903229 2.0729032L0.03483871 5.8209677C0.011612903 5.9545159 0 6.0938711 0 6.2303224C0 7.5977421 1.1119355 8.7096777 2.4793549 8.7096777L15.520645 8.7096777C16.888065 8.7096777 18 7.5977421 18 6.2303224C18 6.0938711 17.988386 5.9574194 17.96516 5.8209677L17.96516 5.8238711ZM15.520645 6.970645L2.4967742 6.970645C2.2935483 6.970645 2.0961289 6.8864517 1.953871 6.7412901C1.8145162 6.5990324 1.7390323 6.4161291 1.7418548 6.2216129C1.7418548 6.1838708 1.7448387 6.1490321 1.7535484 6.1112905L2.3777421 2.3603225C2.4358065 2.0032258 2.7435484 1.7448387 3.1064515 1.7448387L5.0196776 1.7448387L6.2245159 3.2864516C6.6135483 3.7829032 7.1970968 4.0674195 7.8270969 4.0674195L10.17871 4.0674195C10.80871 4.0674195 11.392258 3.7829032 11.78129 3.2864516L12.986129 1.7448387L14.899355 1.7448387C15.262259 1.7448387 15.567097 2.0032258 15.628064 2.3603225L16.252258 6.108387C16.258064 6.1490321 16.26387 6.1925807 16.26387 6.2303224C16.26387 6.6367741 15.932903 6.967742 15.526452 6.967742L15.520645 6.970645Z"/>
</svg>
