<?xml version="1.0" encoding="utf-8" ?>
<svg xmlns="http://www.w3.org/2000/svg" xmlns:xlink="http://www.w3.org/1999/xlink" width="24" height="24">
	<path transform="translate(3 3.02)" d="M2.6975319 10.610099C1.1092112 11.083401 0 12.570092 0 14.225198C0 16.307146 1.6928537 18 3.7748024 18C5.856751 18 7.5496049 16.307146 7.5496049 14.225198C7.5496049 12.570092 6.4403934 11.083401 4.8520727 10.610099L4.6459107 10.549121L4.6459107 7.4508791L4.8520727 7.3899016C6.0745282 7.0240359 7.0240359 6.0745282 7.3899016 4.8520727L7.4508791 4.6459107L10.740765 4.6459107C11.86159 4.6459107 12.773351 5.5576706 12.773351 6.6784964L12.773351 7.3550572L12.567188 7.4160347C10.978868 7.8893371 9.8696566 9.3760281 9.8696566 11.031134C9.8696566 13.113083 11.56251 14.805937 13.644459 14.805937C15.726407 14.805937 17.419262 13.113083 17.419262 11.031134C17.419262 9.3760281 16.310049 7.8893371 14.721729 7.4160347L14.515567 7.3550572L14.515567 6.6784964C14.515567 4.5965476 12.822713 2.9036942 10.740765 2.9036942L7.4508791 2.9036942L7.3899016 2.6975319C6.9165993 1.1092112 5.4299083 0 3.7748024 0C1.6928537 0 0 1.6928537 0 3.7748024C0 5.4299083 1.1092112 6.9165993 2.6975319 7.3899016L2.9036942 7.4508791L2.9036942 10.549121L2.6975319 10.610099L2.6975319 10.610099ZM13.647363 8.9985485C14.768188 8.9985485 15.679949 9.9103079 15.679949 11.031134C15.679949 12.15196 14.768188 13.06372 13.647363 13.06372C12.526537 13.06372 11.614777 12.15196 11.614777 11.031134C11.614777 9.9103079 12.526537 8.9985485 13.647363 8.9985485ZM1.7422165 3.7718987C1.7422165 2.6510727 2.6539764 1.7393128 3.7748024 1.7393128C4.8956285 1.7393128 5.8073883 2.6510727 5.8073883 3.7718987C5.8073883 4.8927245 4.8956285 5.8044844 3.7748024 5.8044844C2.6539764 5.8044844 1.7422165 4.8927245 1.7422165 3.7718987ZM3.7748024 12.192612C4.8956285 12.192612 5.8073883 13.104372 5.8073883 14.225198C5.8073883 15.346024 4.8956285 16.257784 3.7748024 16.257784C2.6539764 16.257784 1.7422165 15.346024 1.7422165 14.225198C1.7422165 13.104372 2.6539764 12.192612 3.7748024 12.192612Z"/>
</svg>
