<?xml version="1.0" encoding="utf-8" ?>
<svg xmlns="http://www.w3.org/2000/svg" xmlns:xlink="http://www.w3.org/1999/xlink" width="24" height="24">
	<path fill="#0B9488" transform="translate(2.99579 3.00311)" d="M16.255262 6.4260001C11.347263 2.0580001 5.4132633 0.39300001 4.2762632 0.102C4.003263 0.033 3.7272632 0 3.4482632 0C2.3412631 0 1.3542632 0.47099999 0.71226317 1.293C-0.013736842 2.2260001 -0.19973685 3.4860001 0.22926316 4.5840001L1.0842632 6.783C1.3602631 7.494 1.5012631 8.2410002 1.5012631 9.0030003C1.5012631 9.7650003 1.3602631 10.512 1.0842632 11.22L0.22926316 13.419C-0.034736842 14.097 -0.07073684 14.826 0.12126316 15.528C0.51726317 16.983 1.8762631 18 3.4212632 18C3.7272632 18 4.003263 17.966999 4.273263 17.898001C5.4132633 17.610001 11.347263 15.942 16.255262 11.574C16.984262 10.923 17.401262 9.9870005 17.401262 9C17.401262 8.0129995 16.984262 7.0770001 16.255262 6.4260001ZM15.058263 10.227L15.058263 10.227C10.465263 14.319 4.9002633 15.879 3.8322632 16.149C3.7062631 16.181999 3.5772631 16.197001 3.4482632 16.197001C2.6832631 16.197001 2.0412631 15.726 1.8552631 15.051C1.7652632 14.721 1.7832632 14.382 1.9062631 14.067L2.7612631 11.868C2.9772632 11.316 3.1272631 10.737 3.2142632 10.146L3.2502632 9.8970003L8.398263 9.8970003C8.8932629 9.8970003 9.2982635 9.4949999 9.2982635 9C9.2982635 8.5050001 8.8932629 8.1000004 8.398263 8.1000004L3.2502632 8.1000004L3.2142632 7.8509998C3.1272631 7.2600002 2.9742632 6.678 2.7612631 6.1259999L1.9062631 3.927C1.7052631 3.408 1.7892631 2.8380001 2.1342633 2.3970001C2.4252632 2.0220001 2.9082632 1.7970001 3.4272633 1.7970001C3.5802631 1.7970001 3.7092631 1.812 3.8322632 1.845C4.9002633 2.115 10.462263 3.678 15.058263 7.7670002C15.403263 8.0760002 15.601263 8.5229998 15.601263 8.9969997C15.601263 9.4709997 15.403263 9.9180002 15.058263 10.227L15.058263 10.227Z"/>
</svg>
