<?xml version="1.0" encoding="utf-8" ?>
<svg xmlns="http://www.w3.org/2000/svg" xmlns:xlink="http://www.w3.org/1999/xlink" width="24" height="24">
	<path transform="translate(11.0707 11.1368)" d="M0.87089753 0C0.39190388 0 0 0.39190388 0 0.87089753C0 1.3498912 0.39190388 1.7417951 0.87089753 1.7417951C1.3498912 1.7417951 1.7417951 1.3498912 1.7417951 0.87089753C1.7417951 0.39190388 1.3498912 0 0.87089753 0Z"/>
	<path transform="translate(3.32784 3.01061)" d="M17.119568 6.0592694C16.930874 5.5164099 16.692829 4.9909687 16.408335 4.4974599C16.123842 4.0039511 15.789998 3.5336666 15.412609 3.1011209C15.026511 2.6540601 14.466234 2.398597 13.876926 2.398597C13.67662 2.398597 13.476314 2.4276268 13.281814 2.4885895L12.178677 2.8253367L11.92031 1.7018789C11.740325 0.91807115 11.113278 0.31424886 10.323665 0.16329329C9.1885948 -0.054431096 8.03901 -0.054431096 6.9068437 0.16329329C6.1172299 0.31424886 5.4930868 0.91807115 5.3101983 1.7018789L5.0518317 2.8253367L3.9486949 2.4885895C3.1910143 2.2563503 2.3375347 2.5031047 1.8178991 3.1011209C1.4405102 3.5365696 1.1066662 4.0068541 0.822173 4.5003629C0.53767979 4.9938717 0.29673147 5.5193129 0.11094001 6.0621724C-0.15032925 6.8198533 0.05868616 7.6646237 0.64509046 8.2132893L1.489861 9L0.64799345 9.7867107C0.061589152 10.335376 -0.15032925 11.177244 0.113843 11.937828C0.30253747 12.480687 0.54058278 13.006128 0.82507598 13.499637C1.1095692 13.993146 1.4434131 14.46343 1.8208021 14.898879C2.2069001 15.34594 2.7671773 15.601403 3.3564847 15.601403C3.5567911 15.601403 3.7570975 15.572373 3.9515979 15.511411L5.0547347 15.174664L5.3131013 16.29812C5.4930868 17.081928 6.1201329 17.685751 6.9097466 17.836706C8.03901 18.054432 9.1973038 18.054432 10.326568 17.836706C11.116181 17.685751 11.740325 17.081928 11.923213 16.29812L12.18158 15.174664L13.284717 15.511411C14.042397 15.743649 14.895877 15.496896 15.415512 14.898879C15.792901 14.46343 16.126745 13.993146 16.411238 13.499637C16.695732 13.006128 16.93668 12.480687 17.122471 11.937828C17.386644 11.177244 17.174725 10.335376 16.588322 9.7867107L15.74355 9L16.588322 8.2132893C17.174725 7.6646237 17.386644 6.8227563 17.122471 6.0621724L17.119568 6.0592694ZM15.473572 11.365938C15.322617 11.807193 15.128116 12.23103 14.89878 12.625836C14.669443 13.023546 14.399466 13.403838 14.094651 13.7551L13.969822 13.897347L12.71573 13.514153C12.547357 13.461898 12.373177 13.435771 12.196095 13.435771C11.365839 13.435771 10.657509 14.001855 10.471718 14.808887L10.178515 16.086203L9.9927235 16.121038C9.5340509 16.208128 9.0753784 16.254576 8.6138029 16.254576C8.1522274 16.254576 7.6906514 16.211031 7.2348814 16.121038L7.0490904 16.086203L6.755888 14.808887C6.5700965 13.998952 5.8588634 13.435771 5.0315108 13.435771C4.8573313 13.435771 4.6802487 13.461898 4.5118756 13.514153L3.2606859 13.897347L3.1358573 13.7551C2.8310432 13.403838 2.561065 13.023546 2.3317287 12.625836C2.1023922 12.228127 1.9078919 11.80429 1.7569363 11.365938L1.6959735 11.188856L2.6539607 10.294734C3.0168347 9.9550838 3.2171412 9.4964113 3.2171412 9C3.2171412 8.5035887 3.0168347 8.0420132 2.6539607 7.7052655L1.6959735 6.8111444L1.7569363 6.6340618C1.9078919 6.1957102 2.1023922 5.76897 2.3317287 5.3741632C2.561065 4.9764533 2.8310432 4.5961614 3.1358573 4.2448997L3.2606859 4.102653L4.5147786 4.4858479C4.6831517 4.5381017 4.8573313 4.5642285 5.0315108 4.5642285C5.8617663 4.5642285 6.5700965 3.9981453 6.755888 3.1911137L7.0519934 1.9137973L7.2377844 1.8789613C8.1522274 1.7018789 9.0811844 1.7018789 9.9956264 1.8789613L10.181418 1.9137973L10.474621 3.1911137C10.660412 4.0010481 11.371645 4.5642285 12.198997 4.5642285C12.373177 4.5642285 12.547357 4.5381017 12.718633 4.4858479L13.969822 4.102653L14.094651 4.2448997C14.399466 4.5961614 14.669443 4.9764533 14.89878 5.3741632C15.128116 5.7718735 15.322617 6.1957102 15.473572 6.6340618L15.534534 6.8111444L14.576548 7.7052655C14.213674 8.0449162 14.013368 8.5035887 14.013368 9C14.013368 9.4964113 14.213674 9.9579868 14.576548 10.294734L15.534534 11.188856L15.473572 11.365938L15.473572 11.365938Z"/>
</svg>
