<?xml version="1.0" encoding="utf-8" ?>
<svg xmlns="http://www.w3.org/2000/svg" xmlns:xlink="http://www.w3.org/1999/xlink" width="24" height="24">
	<path fill="#FFFFFF" transform="translate(3.00792 17.5225)" d="M17.47719 1.8298373C14.805046 0.60994577 11.958632 0 8.9960384 0C6.0334444 0 3.1870308 0.60994577 0.51488739 1.8298373C0.079211853 2.0331526 -0.1241034 2.5559633 0.079211853 2.9916389C0.16634697 3.1949542 0.34061718 3.3692243 0.57297748 3.4563594C0.80533779 3.5434945 1.0376981 3.5434945 1.2410134 3.4273145C3.6517515 2.294558 6.2948499 1.7427022 8.9960384 1.7427022C11.697227 1.7427022 14.31128 2.294558 16.780107 3.3982694C16.896288 3.4563594 17.012468 3.4854045 17.128649 3.4854045C17.47719 3.4854045 17.767639 3.2820892 17.912865 2.9625938C18.11618 2.5269182 17.912865 2.0041075 17.47719 1.8298373L17.47719 1.8298373Z"/>
	<path fill="#FFFFFF" transform="translate(3 3)" d="M7.8421602 0C7.2903042 0 6.7965388 0.20331526 6.3899083 0.58090073L1.0165763 5.9832778C0.34854046 6.6513138 0 7.5226645 0 8.4521055L0 9.8753128C0 11.153295 1.0456214 12.198915 2.3236029 12.198915L3.7468097 12.198915C4.6762509 12.198915 5.5476022 11.850375 6.2156382 11.18234L11.58897 5.8090076C11.966556 5.4314222 12.16987 4.9086113 12.16987 4.3567557C12.198915 1.9460175 10.252898 0 7.8421602 0L7.8421602 0ZM10.456214 4.4729357L4.9957466 9.933403C4.6472058 10.281943 4.2115302 10.456214 3.7468097 10.456214L2.3236029 10.456214C2.0041075 10.456214 1.7427022 10.194808 1.7427022 9.8753128L1.7427022 8.4521055C1.7427022 7.9873853 1.9169725 7.5517097 2.2655129 7.2322145L7.7259798 1.7427022L7.8421602 1.7427022C9.2944117 1.7427022 10.456214 2.9045038 10.456214 4.3567557C10.456214 4.3567557 10.456214 4.4729357 10.456214 4.4729357Z"/>
</svg>
