<?xml version="1.0" encoding="utf-8" ?>
<svg xmlns="http://www.w3.org/2000/svg" xmlns:xlink="http://www.w3.org/1999/xlink" width="24" height="24">
	<path transform="translate(3.01 15.8188)" d="M1.5825133 4.5522666C2.01226 4.9820132 2.5842879 5.2172127 3.19116 5.2172127C3.798032 5.2172127 4.3700595 4.9820132 4.7998066 4.5522666L7.8748183 1.4772544C8.040329 1.3117439 8.1303434 1.0939667 8.1303434 0.86167121C8.1303434 0.6293757 8.040329 0.41159865 7.8748183 0.24608807C7.546701 -0.082029358 6.9717698 -0.082029358 6.6436524 0.24608807L3.56864 3.3211002C3.4728181 3.4169221 3.3363445 3.4720924 3.1940637 3.4720924L3.1940637 3.4720924C3.0517826 3.4720924 2.915309 3.4169221 2.8194871 3.3211002L1.4866914 1.9883046C1.158574 1.6601871 0.58364254 1.6601871 0.25552508 1.9883046C0.090014517 2.153815 0 2.3715923 0 2.6038878C0 2.8361833 0.090014517 3.0539603 0.25552508 3.219471L1.585417 4.5522666L1.5825133 4.5522666Z"/>
	<path transform="translate(3.01 9.43063)" d="M1.5825133 4.5522666C2.01226 4.9820132 2.5842879 5.2172127 3.19116 5.2172127C3.798032 5.2172127 4.3700595 4.9820132 4.7998066 4.5522666L7.8748183 1.4772544C8.040329 1.3117439 8.1303434 1.0939667 8.1303434 0.86167121C8.1303434 0.6293757 8.040329 0.41159865 7.8748183 0.24608807C7.546701 -0.082029358 6.9717698 -0.082029358 6.6436524 0.24608807L3.56864 3.3211002C3.4728181 3.4169221 3.3363445 3.4720924 3.1940637 3.4720924L3.1940637 3.4720924C3.0517826 3.4720924 2.915309 3.4169221 2.8194871 3.3211002L1.4866914 1.9883046C1.158574 1.6601871 0.58364254 1.6601871 0.25552508 1.9883046C0.090014517 2.153815 0 2.3715923 0 2.6038878C0 2.8361833 0.090014517 3.0539603 0.25552508 3.219471L1.585417 4.5522666L1.5825133 4.5522666Z"/>
	<path transform="translate(3.01 3.0425)" d="M1.5825133 4.5522666C2.01226 4.9820132 2.5842879 5.2172127 3.19116 5.2172127C3.798032 5.2172127 4.3700595 4.9820132 4.7998066 4.5522666L7.8748183 1.4772544C8.040329 1.3117439 8.1303434 1.0939667 8.1303434 0.86167121C8.1303434 0.6293757 8.040329 0.41159865 7.8748183 0.24608807C7.546701 -0.082029358 6.9717698 -0.082029358 6.6436524 0.24608807L3.56864 3.3211002C3.4728181 3.4169221 3.3363445 3.4720924 3.1940637 3.4720924L3.1940637 3.4720924C3.0517826 3.4720924 2.915309 3.4169221 2.8194871 3.3211002L1.4866914 1.9883046C1.158574 1.6601871 0.58364254 1.6601871 0.25552508 1.9883046C0.090014517 2.153815 0 2.3715923 0 2.6038878C0 2.8361833 0.090014517 3.0539603 0.25552508 3.219471L1.585417 4.5522666L1.5825133 4.5522666Z"/>
	<path transform="translate(13.7508 5.64639)" d="M0.87110823 1.7422165L6.3881273 1.7422165C6.8672366 1.7422165 7.2592354 1.3502178 7.2592354 0.87110823C7.2592354 0.39199871 6.8672366 0 6.3881273 0L0.87110823 0C0.39199871 0 0 0.39199871 0 0.87110823C0 1.3502178 0.39199871 1.7422165 0.87110823 1.7422165Z"/>
	<path transform="translate(13.7508 11.1634)" d="M0.87110823 1.7422165L6.3881273 1.7422165C6.8672366 1.7422165 7.2592354 1.3502178 7.2592354 0.87110823C7.2592354 0.39199871 6.8672366 0 6.3881273 0L0.87110823 0C0.39199871 0 0 0.39199871 0 0.87110823C0 1.3502178 0.39199871 1.7422165 0.87110823 1.7422165Z"/>
	<path transform="translate(13.7508 16.6804)" d="M0.87110823 1.7422165L6.3881273 1.7422165C6.8672366 1.7422165 7.2592354 1.3502178 7.2592354 0.87110823C7.2592354 0.39199871 6.8672366 0 6.3881273 0L0.87110823 0C0.39199871 0 0 0.39199871 0 0.87110823C0 1.3502178 0.39199871 1.7422165 0.87110823 1.7422165Z"/>
</svg>
