<?xml version="1.0" encoding="utf-8" ?>
<svg xmlns="http://www.w3.org/2000/svg" xmlns:xlink="http://www.w3.org/1999/xlink" width="24" height="24">
	<path transform="translate(4.03631 3.02)" d="M16.050102 17.227741C16.590103 16.687742 16.868813 15.941613 16.81365 15.180967C16.764296 14.510323 16.604618 13.86 16.337523 13.244516C15.942683 12.335807 15.31849 11.534516 14.537522 10.924839C14.05849 10.550323 13.559134 10.213549 13.056877 9.9203224L12.786877 9.7635489L12.963973 9.5051613C13.593973 8.5877419 13.927844 7.5106454 13.927844 6.3870969L13.927844 5.516129C13.927844 2.4735484 11.454296 0 8.4117155 0L8.3101025 0C5.3255863 0.05516129 2.8955863 2.5809677 2.8955863 5.6322579L2.8955863 6.3870969C2.8955863 7.5077419 3.2294574 8.5877419 3.8594573 9.5051613L4.0365543 9.7635489L3.7665541 9.9203224C3.2642961 10.213549 2.7649412 10.553226 2.2859089 10.924839C1.502038 11.534516 0.88074768 12.33871 0.4830057 13.247419C0.21590894 13.862904 0.056231521 14.516129 0.006876681 15.183871C-0.048284609 15.944516 0.23042507 16.690645 0.77042508 17.230644C1.2668767 17.727097 1.9259089 18 2.6255863 18L14.197845 18C14.897522 18 15.556554 17.727097 16.053005 17.230644L16.050102 17.227741ZM1.9984896 15.996774C1.8155863 15.813871 1.7226832 15.564194 1.7401025 15.305806C1.7749412 14.832581 1.888167 14.370968 2.0768766 13.938387C2.3555863 13.296774 2.7968767 12.727742 3.3513927 12.298064C4.2542958 11.595484 5.2007475 11.055484 6.1617155 10.69258C6.4433284 10.588064 6.6378446 10.329678 6.6610703 10.033548C6.6494575 9.8419352 6.542038 9.6677418 6.3678446 9.5574198C5.2820377 8.8577423 4.6346188 7.6732259 4.6346188 6.3870969L4.6346188 5.6322579C4.6346188 3.5245161 6.2952638 1.7796774 8.3391352 1.7419355L8.4088125 1.7419355C10.490425 1.7419355 12.183005 3.4345162 12.183005 5.516129L12.183005 6.3870969C12.183005 7.6732259 11.535586 8.8606453 10.44978 9.5574198C10.275586 9.6706448 10.17107 9.8419352 10.156554 10.033548C10.17978 10.329678 10.374296 10.588064 10.653006 10.69258C11.616877 11.055484 12.563329 11.595484 13.463328 12.298064C14.017844 12.730645 14.459135 13.296774 14.737844 13.938387C14.926554 14.373871 15.03978 14.832581 15.074618 15.305806C15.092038 15.561291 14.999135 15.813871 14.816232 15.996774C14.650747 16.162258 14.424296 16.255161 14.192038 16.255161L2.622683 16.255161C2.390425 16.255161 2.1639736 16.162258 1.9984896 15.996774Z"/>
</svg>
