<?xml version="1.0" encoding="utf-8" ?>
<svg xmlns="http://www.w3.org/2000/svg" xmlns:xlink="http://www.w3.org/1999/xlink" width="24" height="24">
	<path fill="#929292" transform="translate(8.51613 8.64516)" d="M3.483871 6.967742C5.4058065 6.967742 6.967742 5.4058065 6.967742 3.483871C6.967742 1.5619354 5.4058065 0 3.483871 0C1.5619354 0 0 1.5619354 0 3.483871C0 5.4058065 1.5619354 6.967742 3.483871 6.967742ZM3.483871 1.7419355C4.4448385 1.7419355 5.2258062 2.5229032 5.2258062 3.483871C5.2258062 4.4448385 4.4448385 5.2258062 3.483871 5.2258062C2.5229032 5.2258062 1.7419355 4.4448385 1.7419355 3.483871C1.7419355 2.5229032 2.5229032 1.7419355 3.483871 1.7419355Z"/>
	<path fill="#929292" transform="translate(3 4)" d="M0.62709677 10.448709C2.8829033 14.304193 5.7019353 16.258064 9 16.258064C12.298064 16.258064 15.117097 14.304193 17.372904 10.448709C17.782259 9.749032 18 8.9477415 18 8.1290321C18 7.3103228 17.782259 6.5090322 17.372904 5.8093548C15.117097 1.953871 12.298064 0 9 0C5.7019353 0 2.8829033 1.953871 0.62709677 5.8093548C0.21774194 6.5090322 0 7.3103228 0 8.1290321C0 8.9477415 0.21774194 9.749032 0.62709677 10.448709L0.62709677 10.448709ZM2.1309679 6.6890321C4.0790324 3.3590322 6.326129 1.7419355 9 1.7419355C11.673871 1.7419355 13.920968 3.3590322 15.869032 6.6890321C16.124516 7.121613 16.258064 7.6209679 16.258064 8.1290321C16.258064 8.6370964 16.124516 9.1335487 15.869032 9.5690327C13.920968 12.899033 11.673871 14.516129 9 14.516129C6.326129 14.516129 4.0790324 12.899033 2.1309679 9.5690327C1.8754839 9.1364517 1.7419355 8.6370964 1.7419355 8.1290321C1.7419355 7.6209679 1.8754839 7.124516 2.1309679 6.6890321Z"/>
</svg>
